PathFileType	4	(X/Y/Z)	/Users/itak/Documents/Research/Walk-IL/dataset/trc/00426_00167.trc
DataRate	CameraRate	NumFrames	NumMarkers	Units	OrigDataRate	OrigDataStartFrame	OrigNumFrames
100.000000	100.000000	4	53	mm	100.000000	451	602
Frame#	Time	RPSI			LPSI			L3			STRN			T10			C7			CLAV			RBAK			LBAK			LSHO			LUPA			LAEL			LAOL			LWTS			LWPS			LFRA			LIFD			LHPS			LHTS			RSHO			RUPA			RAEL			RAOL			RWTS			RWPS			RFRA			RIFD			RHTS			RHPS			RBHD			LFHD			RFHD			LBHD			LHIP			RHIP			RASI			LASI			LKNE			LTHI			LANK			LTIP			LTOE			LMT1			LMT5			LHEE			RKNE			RTHI			RANK			RTIP			RTOE			RMT1			RMT5			RHEE			
		X1	Y1	Z1	X2	Y2	Z2	X3	Y3	Z3	X4	Y4	Z4	X5	Y5	Z5	X6	Y6	Z6	X7	Y7	Z7	X8	Y8	Z8	X9	Y9	Z9	X10	Y10	Z10	X11	Y11	Z11	X12	Y12	Z12	X13	Y13	Z13	X14	Y14	Z14	X15	Y15	Z15	X16	Y16	Z16	X17	Y17	Z17	X18	Y18	Z18	X19	Y19	Z19	X20	Y20	Z20	X21	Y21	Z21	X22	Y22	Z22	X23	Y23	Z23	X24	Y24	Z24	X25	Y25	Z25	X26	Y26	Z26	X27	Y27	Z27	X28	Y28	Z28	X29	Y29	Z29	X30	Y30	Z30	X31	Y31	Z31	X32	Y32	Z32	X33	Y33	Z33	X34	Y34	Z34	X35	Y35	Z35	X36	Y36	Z36	X37	Y37	Z37	X38	Y38	Z38	X39	Y39	Z39	X40	Y40	Z40	X41	Y41	Z41	X42	Y42	Z42	X43	Y43	Z43	X44	Y44	Z44	X45	Y45	Z45	X46	Y46	Z46	X47	Y47	Z47	X48	Y48	Z48	X49	Y49	Z49	X50	Y50	Z50	X51	Y51	Z51	X52	Y52	Z52	X53	Y53	Z53	

452	4.51	804.8970947265625	934.9542236328125	808.6575317382812	897.579833984375	925.0901489257812	701.0437622070312	843.3715209960938	1024.06787109375	777.5693359375	1059.355346679688	1217.061279296875	933.4169921875	827.2399291992188	1147.73779296875	760.597900390625	875.3883056640625	1415.34912109375	808.13037109375	1031.279907226562	1330.06689453125	905.7899169921875	767.6737060546875	1298.167846679688	846.0200805664062	907.7998657226562	1368.02880859375	708.64404296875	1038.553344726562	1384.051147460938	706.1359252929688	1081.0615234375	1265.408325195312	617.2373046875	1106.594970703125	1053.237426757812	586.8662719726562	1006.273803710938	1038.919921875	610.9539794921875	1148.358764648438	839.1507568359375	640.1641235351562	1132.157470703125	834.4727172851562	567.9520874023438	1124.481323242188	964.9072875976562	578.5996704101562	1137.543701171875	671.6016845703125	616.1871948242188	1129.30029296875	753.4649047851562	562.3036499023438	1155.63525390625	748.706787109375	628.121337890625	834.2526245117188	1384.8759765625	979.3223266601562	767.7183227539062	1326.54833984375	1024.201782226562	692.7850341796875	1050.463500976562	1054.300415039062	683.9647827148438	1040.749877929688	988.0573120117188	745.9114379882812	829.0816040039062	1082.733520507812	659.9734497070312	834.3225708007812	1072.409423828125	676.1983032226562	994.1778564453125	1059.306518554688	703.5425415039062	675.8401489257812	1076.791625976562	723.5391845703125	730.4688110351562	1093.93994140625	652.1317749023438	745.5726928710938	1075.329711914062	887.9854125976562	1609.783447265625	918.0491943359375	1086.394897460938	1629.883056640625	863.272705078125	1013.2744140625	1634.373168945312	970.9611206054688	973.6646118164062	1607.771728515625	762.4992065429688	1088.099853515625	830.8743896484375	715.7017211914062	786.19189453125	828.837646484375	987.2919311523438	909.5676879882812	859.7617797851562	1012.012878417969	1091.967651367188	873.7556762695312	836.6515502929688	1187.75537109375	435.8709106445312	854.3997192382812	1176.758666992188	586.8842163085938	815.452392578125	1194.373901367188	26.40047073364258	850.4766845703125	1213.53271484375	279.2302856445312	864.385009765625	1290.30322265625	29.15744590759277	1063.352783203125	1224.50244140625	36.92886352539062	1025.1953125	1304.969970703125	35.49451065063477	948.3908081054688	1122.312744140625	29.10505485534668	844.8694458007812	743.1921997070312	448.3858642578125	915.7753295898438	797.495849609375	689.918212890625	1001.051574707031	525.8656005859375	104.7420120239258	754.7996215820312	671.3958740234375	323.080322265625	876.966796875	721.6720581054688	37.76519775390625	780.5049438476562	685.0949096679688	53.48650360107422	729.5913696289062	619.5894775390625	44.02312469482422	815.3412475585938	496.0440673828125	143.4188385009766	688.6532592773438	
453	4.52	812.7445068359375	936.3435668945312	811.5079956054688	905.1465454101562	926.3178100585938	703.6773681640625	851.296630859375	1025.921142578125	780.3800659179688	1067.541381835938	1218.374145507812	936.0963134765625	835.0372314453125	1149.625610351562	763.9290161132812	883.493896484375	1416.948486328125	811.7910766601562	1039.51513671875	1331.503295898438	908.8237915039062	775.9075317382812	1299.985595703125	850.0625610351562	915.6497802734375	1369.86962890625	712.1080932617188	1046.375122070312	1385.85107421875	709.45654296875	1089.224365234375	1267.487548828125	620.4979248046875	1115.655029296875	1055.370971679688	590.1784057617188	1015.44921875	1040.45654296875	614.0643920898438	1159.451171875	842.0037841796875	644.6015014648438	1143.277954101562	836.7146606445312	572.4390869140625	1134.334716796875	967.163330078125	582.3357543945312	1150.147216796875	674.1815185546875	621.6265869140625	1141.040283203125	755.6272583007812	567.2589111328125	1167.539184570312	751.5166625976562	633.081298828125	843.1820678710938	1386.704223632812	983.14453125	776.6153564453125	1328.758911132812	1028.242797851562	700.0860595703125	1052.99169921875	1057.543579101562	691.4614868164062	1043.347412109375	991.288818359375	752.141357421875	831.2262573242188	1086.192260742188	666.3729248046875	836.7872314453125	1075.4140625	683.2544555664062	996.7666625976562	1062.489135742188	709.5804443359375	678.1273193359375	1079.325439453125	729.62744140625	732.6099853515625	1096.802001953125	658.3125610351562	748.0042114257812	1077.801147460938	896.2080688476562	1611.152099609375	921.290283203125	1094.572265625	1631.35546875	866.3685913085938	1021.542907714844	1635.919311523438	974.1129760742188	981.7692260742188	1609.0341796875	765.6893920898438	1095.783447265625	831.7171020507812	718.037841796875	794.476806640625	830.3016967773438	990.2526245117188	917.941650390625	861.2002563476562	1014.461791992188	1099.929321289062	875.0440063476562	838.7012329101562	1193.675537109375	436.2567443847656	857.6272583007812	1183.67529296875	587.54736328125	818.3884887695312	1194.4560546875	26.65879249572754	850.789794921875	1217.286376953125	278.8270568847656	866.4464111328125	1290.246826171875	28.51237869262695	1063.686767578125	1224.5927734375	36.65329360961914	1025.389770507812	1305.315551757812	35.32247543334961	948.6726684570312	1122.458984375	29.28487968444824	845.07861328125	750.7052612304688	449.73291015625	920.9056396484375	805.8104248046875	691.80029296875	1004.90576171875	528.6995239257812	108.7485656738281	758.0512084960938	677.3148803710938	325.7042846679688	881.8988037109375	721.5709228515625	37.89861679077148	780.7637939453125	685.98974609375	54.30111694335938	730.5333862304688	620.6466674804688	44.16403198242188	816.534912109375	500.2518310546875	149.8105163574219	692.888671875	
454	4.53	820.6160888671875	937.6405029296875	814.0614624023438	912.9154663085938	927.3983764648438	706.1845703125	859.342529296875	1027.699340820312	783.02294921875	1075.648193359375	1219.618408203125	938.7603149414062	842.90234375	1151.438598632812	767.1287231445312	891.5118408203125	1418.496337890625	815.4124755859375	1047.67431640625	1332.8603515625	911.8365478515625	784.0733032226562	1301.703247070312	854.023193359375	923.4326171875	1371.65673828125	715.5330200195312	1054.130859375	1387.582153320312	712.74951171875	1097.289428710938	1269.5166015625	623.6836547851562	1124.677856445312	1057.471557617188	593.3533935546875	1024.60302734375	1041.930297851562	617.0150146484375	1170.73779296875	844.9796142578125	649.111328125	1154.618408203125	838.97705078125	577.0098266601562	1144.2626953125	969.416015625	586.0114135742188	1163.181518554688	676.86962890625	627.3654174804688	1153.119262695312	757.8045654296875	572.4057006835938	1179.763671875	754.4629516601562	638.2272338867188	852.0003051757812	1388.414184570312	986.9057006835938	785.4479370117188	1330.831176757812	1032.246459960938	707.5095825195312	1055.362182617188	1061.046142578125	698.935546875	1045.7685546875	994.7962036132812	758.8128051757812	833.2720947265625	1089.845825195312	673.173095703125	839.0230102539062	1078.8671875	690.5096435546875	999.1788940429688	1066.01416015625	716.2904052734375	680.2559204101562	1082.0615234375	736.35205078125	734.6055297851562	1099.821655273438	665.0485229492188	750.1637573242188	1080.652954101562	904.3865966796875	1612.480712890625	924.5558471679688	1102.693481445312	1632.75634765625	869.467529296875	1029.764404296875	1637.372314453125	977.2656860351562	989.799072265625	1610.278930664062	768.887451171875	1103.581787109375	832.3300170898438	720.4732055664062	802.5078125	831.8467407226562	992.9867553710938	926.0485229492188	862.6967163085938	1016.870178222656	1107.8837890625	876.04345703125	840.9069213867188	1199.28125	436.3674621582031	860.56884765625	1190.292602539062	587.7568969726562	820.9867553710938	1194.4853515625	26.9228630065918	851.096923828125	1220.768432617188	278.2651672363281	868.3034057617188	1290.247314453125	28.13324165344238	1064.009521484375	1224.640258789062	36.44797897338867	1025.594848632812	1305.558959960938	35.23124694824219	948.9403686523438	1122.546142578125	29.43512916564941	845.28857421875	758.1572875976562	451.0638732910156	926.2408447265625	813.9205932617188	693.7822875976562	1008.763488769531	531.8265991210938	112.7993927001953	761.3164672851562	683.265380859375	328.3362121582031	887.001708984375	721.5086059570312	37.98759841918945	781.1029052734375	686.9783935546875	55.13850784301758	731.6754760742188	621.7779541015625	44.3314323425293	817.814208984375	504.8724365234375	156.1824951171875	697.1709594726562	
455	4.54	828.4609375	938.8412475585938	816.343994140625	920.820556640625	928.3960571289062	708.5791625976562	867.4523315429688	1029.392822265625	785.526123046875	1083.667358398438	1220.780883789062	941.41455078125	850.7954711914062	1153.1513671875	770.1765747070312	899.435302734375	1419.9716796875	818.9712524414062	1055.7490234375	1334.120361328125	914.8222045898438	792.1508178710938	1303.30029296875	857.861572265625	931.1417236328125	1373.361083984375	718.905029296875	1061.817138671875	1389.217041015625	715.9979858398438	1105.243408203125	1271.455444335938	626.7843017578125	1133.659912109375	1059.510620117188	596.3917846679688	1033.724243164062	1043.31689453125	619.79296875	1182.1806640625	848.0579223632812	653.6932373046875	1166.164306640625	841.2490844726562	581.6595458984375	1154.256103515625	971.6417846679688	589.6296997070312	1176.632934570312	679.663818359375	633.376953125	1165.545166015625	759.998779296875	577.7300415039062	1192.285766601562	757.5402221679688	643.5516967773438	860.6685791015625	1389.968383789062	990.5791015625	794.1793823242188	1332.71337890625	1036.175659179688	715.0501098632812	1057.532592773438	1064.800903320312	706.385009765625	1047.956909179688	998.5685424804688	765.9301147460938	835.18408203125	1093.713989257812	680.3612670898438	841.002197265625	1082.793579101562	697.9581298828125	1001.377075195312	1069.8798828125	723.619873046875	682.180419921875	1085.054565429688	743.665771484375	736.4312744140625	1103.054443359375	672.3052368164062	752.0308837890625	1083.952514648438	912.506591796875	1613.7548828125	927.8369750976562	1110.746215820312	1634.07421875	872.5665893554688	1037.918334960938	1638.716674804688	980.4141235351562	997.7479248046875	1611.496704101562	772.0899047851562	1111.403930664062	832.7941284179688	722.9859008789062	810.2549438476562	833.3901977539062	995.4688110351562	933.8569946289062	864.2107543945312	1019.24365234375	1115.76953125	876.8011474609375	843.26416015625	1204.587768554688	436.2546081542969	863.2213134765625	1196.611694335938	587.62060546875	823.2877197265625	1194.487426757812	27.15605354309082	851.3732299804688	1224.021240234375	277.5878295898438	869.9786987304688	1290.29931640625	27.93578910827637	1064.299560546875	1224.668090820312	36.29683685302734	1025.786987304688	1305.727783203125	35.17942428588867	949.1617431640625	1122.603271484375	29.56131172180176	845.466552734375	765.5764770507812	452.34619140625	931.8162231445312	821.7551879882812	695.7293701171875	1012.540161132812	535.2474975585938	116.9453430175781	764.60546875	689.2592163085938	330.9218444824219	892.2821044921875	721.5270385742188	37.97767639160156	781.524658203125	688.0932006835938	55.99336242675781	732.9791259765625	623.0130615234375	44.53607177734375	819.1752319335938	509.8876953125	162.5456390380859	701.4891967773438	
